<svg xmlns="http://www.w3.org/2000/svg" xmlns:xlink="http://www.w3.org/1999/xlink" xmlns:svgjs="http://svgjs.dev/svgjs" version="1.1" width="1500" height="935" viewBox="-3 -3 1506 941"><g id="deeditor_bgCarrier" stroke-width="0">
  <rect id="dee_c_e" x="-3" y="-3" width="1506" height="941" rx="38.4" fill="#303f9f" strokewidth="0"/>
</g><g transform="matrix(1,0,0,1,-0.9090909090909918,0.3785425101214628)"><svg xmlns="http://www.w3.org/2000/svg" xmlns:xlink="http://www.w3.org/1999/xlink" viewBox="0 0 396 247" data-background-color="#303f9f" preserveAspectRatio="xMidYMid meet" height="935" width="1500"><g id="tight-bounds" transform="matrix(1,0,0,1,0.2400000000000091,-0.09999999999999432)"><svg viewBox="0 0 395.52 247.2" height="247.2" width="395.52"><g><svg/></g><g><svg viewBox="0 0 395.52 247.2" height="247.2" width="395.52"><g transform="matrix(1,0,0,1,75.54432,99.82398015720524)"><svg viewBox="0 0 244.43135999999998 47.55203968558951" height="47.55203968558951" width="244.43135999999998"><g><svg viewBox="0 0 244.43135999999998 47.55203968558951" height="47.55203968558951" width="244.43135999999998"><g><svg viewBox="0 0 244.43136 47.55203968558952" height="47.55203968558951" width="244.43135999999998"><g><svg viewBox="0 0 244.43136 47.55203968558952" height="47.55203968558952" width="244.43136"><g id="textblocktransform"><svg viewBox="0 0 244.43136 47.55203968558952" height="47.55203968558952" width="244.43136" id="textblock"><g><svg viewBox="0 0 244.43136 47.55203968558952" height="47.55203968558952" width="244.43136"><g transform="matrix(1,0,0,1,0,0)"><svg width="244.43136" viewBox="0.45 -33.65 228.98000000000002 44.55" height="47.55203968558952" data-palette-color="#ffffff"><path d="M24.35-26.35Q24.1-27.15 22.43-27.78 20.75-28.4 18.05-28.4L18.05-28.4Q15.1-28.4 13.45-26.75 11.8-25.1 11.8-22.6L11.8-22.6Q11.8-21.05 12.93-20.23 14.05-19.4 16.4-18.4L16.4-18.4 18.2-17.65 19.7-16.95Q22.4-15.75 23.98-14.78 25.55-13.8 26.65-12.1 27.75-10.4 27.75-7.75L27.75-7.75Q27.75-4.9 25.88-2.83 24-0.75 20.65 0.33 17.3 1.4 12.85 1.4L12.85 1.4Q9.55 1.4 6.68 0.38 3.8-0.65 2.13-2.2 0.45-3.75 0.45-5.25L0.45-5.25Q0.45-6.7 1.7-7.63 2.95-8.55 5.25-8.9L5.25-8.9Q5.5-7.45 6.95-6.3 8.4-5.15 10.33-4.48 12.25-3.8 13.7-3.8L13.7-3.8Q16.35-3.8 18.43-4.85 20.5-5.9 20.5-7.75L20.5-7.75Q20.5-9.3 19.03-10.33 17.55-11.35 14.6-12.55L14.6-12.55 11.95-13.75Q8.7-15.35 6.8-17.35 4.9-19.35 4.9-22.65L4.9-22.65Q4.9-26.3 6.95-28.58 9-30.85 11.93-31.85 14.85-32.85 17.65-32.85L17.65-32.85Q22.1-32.85 24.98-31.7 27.85-30.55 29.15-28.8 30.45-27.05 30.45-25.2L30.45-25.2Q30.45-24.15 29.93-22.65 29.4-21.15 28.38-20.05 27.35-18.95 25.9-18.95L25.9-18.95Q23.4-18.95 23.4-21.55L23.4-21.55Q23.5-22.35 23.85-24.18 24.2-26 24.35-26.35L24.35-26.35ZM48.5-10.8Q46.75-5.3 44.02-2.2 41.3 0.9 38.5 0.9L38.5 0.9Q33.5 0.9 33.5-8.1L33.5-8.1Q33.5-11.85 34.42-15.45 35.35-19.05 36.5-21.65L36.5-21.65Q37.4-23.75 39.7-23.75L39.7-23.75Q42.3-23.75 42.3-21.45L42.3-21.45Q42.3-21.2 41.7-19.5L41.7-19.5Q39-12.2 39-8.3L39-8.3Q39-6.45 39.32-5.28 39.65-4.1 40.4-4.1L40.4-4.1Q41.75-4.1 43.42-7.18 45.1-10.25 46.52-14.53 47.95-18.8 48.55-22L48.55-22Q48.65-22.65 49.52-23.15 50.4-23.65 51.05-23.65L51.05-23.65Q52.35-23.65 52.9-23.08 53.45-22.5 53.45-21.25L53.45-21.25Q53.45-21 53.15-19.7L53.15-19.7Q52.4-15.7 51.97-12.93 51.55-10.15 51.55-7.75L51.55-7.75Q51.55-6.15 52.07-5.13 52.6-4.1 53.4-4.1L53.4-4.1Q55.7-4.1 57.62-9.8 59.55-15.5 60.75-22.1L60.75-22.1Q60.95-23.4 62.95-23.4L62.95-23.4Q64.05-23.4 65.1-23.03 66.15-22.65 66.2-22.2L66.2-22.2 65.65-19.65Q64.25-13.1 63-9.1 61.75-5.1 59.25-2.1 56.75 0.9 52.75 0.9L52.75 0.9Q48.3 0.9 48.3-6.2L48.3-6.2Q48.3-8.4 48.7-10.8L48.7-10.8 48.5-10.8ZM72.7-29.7Q72.7-31.25 73.67-32.45 74.65-33.65 76.4-33.65L76.4-33.65Q78.25-33.65 79.62-32.5 81-31.35 81-29.9L81-29.9Q81-28.45 79.6-27.4 78.2-26.35 76.35-26.35L76.35-26.35Q74.55-26.35 73.62-27.28 72.7-28.2 72.7-29.7L72.7-29.7ZM77.95-20.85Q75.3-10.05 73.9-4.6L73.9-4.6Q73.7-3.8 73.7-2.85L73.7-2.85 73.75-1.45Q73.75-0.6 73.22-0.25 72.7 0.1 71 0.15L71 0.15Q69.35 0.15 68.5-0.2 67.65-0.55 67.65-1.7L67.65-1.7Q67.65-2.25 68.92-7.55 70.2-12.85 72.4-21.35L72.4-21.35 71.25-22.85Q71.1-23 71.1-23.2L71.1-23.2Q71.1-23.7 72.2-24.03 73.3-24.35 75.25-24.35L75.25-24.35Q76.95-24.35 77.42-23.38 77.9-22.4 77.95-20.85L77.95-20.85ZM86.29-2.2Q86.24-1.9 84.97 3.28 83.69 8.45 83.19 9.8L83.19 9.8Q82.99 10.35 81.99 10.63 80.99 10.9 80.54 10.9L80.54 10.9Q79.44 10.9 78.72 10.2 77.99 9.5 77.94 8.1L77.94 8.1 81.44-6.25Q83.44-14.1 84.74-19.65L84.74-19.65Q84.74-19.95 84.39-21.25L84.39-21.25Q84.24-22.05 84.09-22.75 83.94-23.45 83.89-23.8L83.89-23.8Q83.99-24.45 84.92-24.85 85.84-25.25 86.64-25.25L86.64-25.25Q87.84-25.25 89.02-24.4 90.19-23.55 90.34-22.35L90.34-22.35 90.19-21.05Q92.44-23.85 95.94-23.85L95.94-23.85Q98.79-23.85 100.87-22.48 102.94-21.1 104.04-18.78 105.14-16.45 105.14-13.65L105.14-13.65Q105.14-9.9 103.69-6.6 102.24-3.3 99.34-1.28 96.44 0.75 92.34 0.75L92.34 0.75Q91.04 0.75 88.99-0.13 86.94-1 86.29-2.2L86.29-2.2ZM87.84-8.55Q87.74-7.95 87.74-7.7L87.74-7.7Q87.79-6.45 88.57-5.5 89.34-4.55 90.39-4.03 91.44-3.5 92.14-3.5L92.14-3.5Q94.34-3.5 96.02-5.18 97.69-6.85 98.59-9.33 99.49-11.8 99.49-14.05L99.49-14.05Q99.49-16.15 98.37-17.78 97.24-19.4 95.54-19.4L95.54-19.4Q93.64-19.4 92.42-18.57 91.19-17.75 89.64-16.05L89.64-16.05 87.84-8.55ZM116.24 1.05Q111.34 1.05 109.09-0.9 106.84-2.85 106.84-6.1L106.84-6.1Q106.84-10.85 109.22-14.9 111.59-18.95 115.57-21.33 119.54-23.7 124.14-23.7L124.14-23.7Q126.94-23.7 128.84-22.13 130.74-20.55 130.74-17.5L130.74-17.5Q130.74-15.75 129.62-14.63 128.49-13.5 126.39-12.63 124.29-11.75 119.59-10.15L119.59-10.15Q115.34-8.75 112.69-7.8L112.69-7.8Q112.49-7.05 112.49-6.25L112.49-6.25Q112.49-4.85 113.67-4.1 114.84-3.35 116.99-3.35L116.99-3.35Q118.34-3.35 120.09-3.9 121.84-4.45 122.29-5.3L122.29-5.3Q123.99-8.4 125.39-8.4L125.39-8.4Q127.44-8.4 128.17-7.63 128.89-6.85 128.94-5.9L128.94-5.9Q128.34-4.3 126.59-2.68 124.84-1.05 122.14 0 119.44 1.05 116.24 1.05L116.24 1.05ZM114.09-12.4Q119.04-14 122.24-15.38 125.44-16.75 125.44-18.1L125.44-18.1Q125.44-18.7 124.79-19.07 124.14-19.45 123.39-19.45L123.39-19.45Q121.89-19.45 119.97-18.3 118.04-17.15 116.39-15.5 114.74-13.85 114.09-12.4L114.09-12.4ZM160.29-8.7Q159.54-6.45 157.31-4.17 155.09-1.9 151.71-0.43 148.34 1.05 144.34 1.05L144.34 1.05Q138.24 1.05 135.39-1.93 132.54-4.9 132.54-9.55L132.54-9.55Q132.54-16.15 135.49-21.53 138.44-26.9 143.44-29.98 148.44-33.05 154.24-33.05L154.24-33.05Q156.54-33.05 158.44-32 160.34-30.95 161.44-28.98 162.54-27 162.54-24.35L162.54-24.35Q162.54-22.85 161.41-21.8 160.29-20.75 158.39-20.75L158.39-20.75Q156.89-20.75 156.36-21.55 155.84-22.35 155.84-23.6L155.84-23.6 155.89-25.2Q155.89-26.1 154.89-26.95 153.89-27.8 153.04-27.8L153.04-27.8Q150.24-27.8 146.89-25.28 143.54-22.75 141.24-18.48 138.94-14.2 138.94-9.2L138.94-9.2Q138.94-6.9 140.74-5.45 142.54-4 145.29-4L145.29-4Q146.19-4 147.64-4.6 149.09-5.2 150.31-6.1 151.54-7 151.94-7.85L151.94-7.85Q152.54-9.1 153.64-10.65 154.74-12.2 155.84-12.2L155.84-12.2Q158.39-12.2 159.31-11.1 160.24-10 160.29-8.7L160.29-8.7ZM183.14-2.6Q183.24-1.3 183.49-0.25L183.49-0.25Q183.39 0.05 182.61 0.35 181.84 0.65 181.29 0.65L181.29 0.65Q179.49 0.65 178.71 0.13 177.94-0.4 177.94-1.45L177.94-1.45Q177.94-2.45 178.14-3.45L178.14-3.45Q177.04-1.95 174.91-0.98 172.79 0 171.49 0L171.49 0Q168.14 0 165.91-1.95 163.69-3.9 163.69-8.2L163.69-8.2Q163.69-12.25 165.61-15.83 167.54-19.4 170.94-21.58 174.34-23.75 178.49-23.75L178.49-23.75Q179.29-23.75 180.59-23.33 181.89-22.9 183.21-21.88 184.54-20.85 185.44-19.25L185.44-19.25Q185.84-19.25 186.39-18.85 186.94-18.45 186.94-18.05L186.94-18.05Q186.94-17.6 186.79-17.15L186.79-17.15 183.14-2.6ZM180.89-16.6Q180.59-17.7 179.71-18.45 178.84-19.2 178.14-19.2L178.14-19.2Q175.84-19.2 173.81-17.57 171.79-15.95 170.54-13.55 169.29-11.15 169.29-9L169.29-9Q169.29-6.9 169.79-5.55 170.29-4.2 171.74-4.2L171.74-4.2Q172.99-4.2 174.61-4.95 176.24-5.7 177.51-6.98 178.79-8.25 179.19-9.65L179.19-9.65 180.89-16.6ZM194.93-1.9Q194.88-1.6 194.71-0.73 194.53 0.15 193.86 0.5 193.18 0.85 191.73 0.85L191.73 0.85Q190.08 0.85 189.33 0.5 188.58 0.15 188.58-1L188.58-1 190.98-10.55Q192.98-18.8 193.63-21.05L193.63-21.05 192.38-22.55Q192.23-22.7 192.23-22.9L192.23-22.9Q192.23-23.4 193.33-23.73 194.43-24.05 196.38-24.05L196.38-24.05Q198.13-24.05 198.73-23.08 199.33-22.1 199.48-20.55L199.48-20.55 199.13-19.25Q200.73-21.2 202.86-22.48 204.98-23.75 206.63-23.75L206.63-23.75Q208.78-23.75 209.98-23 211.18-22.25 211.18-21.05L211.18-21.05Q211.18-20 210.46-18.88 209.73-17.75 208.63-16.98 207.53-16.2 206.48-16.1L206.48-16.1Q205.48-16.1 205.13-16.35 204.78-16.6 204.78-17.1L204.78-17.1 205.08-18.75Q201.08-17.65 197.83-13.45L197.83-13.45 194.93-1.9ZM220.13-18.1L216.98-5.5Q216.98-4.35 217.58-3.68 218.18-3 219.28-3L219.28-3Q220.78-3 221.76-3.88 222.73-4.75 223.83-6.35L223.83-6.35Q224.63-7.5 225.13-8 225.63-8.5 226.28-8.5L226.28-8.5Q227.58-8.5 228.13-8.18 228.68-7.85 228.68-6.85L228.68-6.85Q228.68-6.4 228.58-5.78 228.48-5.15 228.33-4.85L228.33-4.85Q227.13-2.3 224.41-0.45 221.68 1.4 218.23 1.4L218.23 1.4Q214.78 1.4 213.03-0.28 211.28-1.95 211.28-5.05L211.28-5.05Q211.28-5.5 211.73-7.4 212.18-9.3 212.88-11.95L212.88-11.95 214.28-17.65 211.23-17.4Q210.63-17.4 210.33-17.85 210.03-18.3 210.03-18.95L210.03-18.95Q210.03-20.2 210.93-21.45L210.93-21.45Q211.03-21.6 211.93-21.75 212.83-21.9 214.13-22.05L214.13-22.05 215.48-22.2 217.18-29.5Q217.68-30.8 218.71-31.53 219.73-32.25 220.63-32.25L220.63-32.25Q221.63-32.25 222.33-31.65 223.03-31.05 223.08-30.25L223.08-30.25 221.28-22.75Q223.23-23 224.91-23.18 226.58-23.35 227.53-23.35L227.53-23.35Q229.43-23.35 229.43-21.15L229.43-21.15Q229.43-20.3 228.71-19.63 227.98-18.95 227.13-18.8L227.13-18.8 220.13-18.1Z" opacity="1" transform="matrix(1,0,0,1,0,0)" fill="#ffffff" class="wordmark-text-0" data-fill-palette-color="primary" id="text-0"/></svg></g></svg></g></svg></g></svg></g></svg></g></svg></g></svg></g><path d="M189.328 93.824L189.328 32.856 7.841 32.856 7.841 214.344 189.328 214.344 189.328 153.376 185.04 153.376 185.04 210.055 12.129 210.055 12.129 37.145 185.04 37.145 185.04 93.824Z" fill="#ffffff" stroke="transparent" data-fill-palette-color="tertiary"/></svg></g><defs fill="#000000"/></svg><rect width="395.52" height="247.2" fill="none" stroke="none" visibility="hidden"/></g></svg></g></svg>